<svg width="15" height="15" viewBox="0 0 15 15" fill="none" xmlns="http://www.w3.org/2000/svg">
<path d="M7.375 14.75C7.00833 14.75 6.69567 14.6207 6.437 14.362C6.179 14.104 6.05 13.7917 6.05 13.425V8.7H1.325C0.958333 8.7 0.646 8.57067 0.388 8.312C0.129333 8.054 0 7.74167 0 7.375C0 7.00833 0.129333 6.69567 0.388 6.437C0.646 6.179 0.958333 6.05 1.325 6.05H6.05V1.325C6.05 0.958334 6.179 0.645667 6.437 0.387C6.69567 0.129 7.00833 0 7.375 0C7.74167 0 8.05433 0.129 8.313 0.387C8.571 0.645667 8.7 0.958334 8.7 1.325V6.05H13.425C13.7917 6.05 14.1043 6.179 14.363 6.437C14.621 6.69567 14.75 7.00833 14.75 7.375C14.75 7.74167 14.621 8.054 14.363 8.312C14.1043 8.57067 13.7917 8.7 13.425 8.7H8.7V13.425C8.7 13.7917 8.571 14.104 8.313 14.362C8.05433 14.6207 7.74167 14.75 7.375 14.75Z" fill="#535AF1"/>
</svg>
