<svg width="7" height="12" viewBox="0 0 7 12" fill="none" xmlns="http://www.w3.org/2000/svg">
<path d="M-0.000162378 5.80729C-0.000162372 5.6684 0.0258801 5.53403 0.0779636 5.40417C0.130047 5.27361 0.199491 5.16493 0.286297 5.07812L5.07796 0.286458C5.26893 0.0954856 5.51199 -5.72953e-08 5.80713 -4.43943e-08C6.10227 -3.14934e-08 6.34532 0.0954857 6.5363 0.286458C6.72727 0.47743 6.82275 0.720486 6.82275 1.01562C6.82275 1.31076 6.72727 1.55382 6.5363 1.74479L2.4738 5.80729L6.5363 9.86979C6.72727 10.0608 6.82275 10.3038 6.82275 10.599C6.82275 10.8941 6.72727 11.1372 6.5363 11.3281C6.34532 11.5191 6.10227 11.6146 5.80713 11.6146C5.51199 11.6146 5.26893 11.5191 5.07796 11.3281L0.286297 6.53646C0.18213 6.43229 0.108519 6.31944 0.0654633 6.19792C0.0217135 6.07639 -0.000162385 5.94618 -0.000162378 5.80729Z" fill="black"/>
</svg>
