<svg width="15" height="15" viewBox="0 0 15 15" fill="none" xmlns="http://www.w3.org/2000/svg">
<path d="M7.1 8.95L2.325 13.725C2.05833 13.9917 1.74167 14.125 1.375 14.125C1.00833 14.125 0.691667 13.9917 0.425 13.725C0.158334 13.4583 0.0250001 13.146 0.0250001 12.788C0.0250001 12.4293 0.158334 12.1167 0.425 11.85L5.225 7.05L0.4 2.25C0.133333 1.98333 0 1.675 0 1.325C0 0.975 0.133333 0.666667 0.4 0.4C0.666667 0.133333 0.979 0 1.337 0C1.69567 0 2.00833 0.133333 2.275 0.4L7.05 5.15L11.775 0.425C12.0417 0.158333 12.3583 0.0250001 12.725 0.0250001C13.0917 0.0250001 13.4083 0.158333 13.675 0.425C13.9417 0.691666 14.075 1.01233 14.075 1.387C14.075 1.76233 13.9417 2.08333 13.675 2.35L8.925 7.125L13.7 11.9C13.95 12.15 14.075 12.4583 14.075 12.825C14.075 13.1917 13.95 13.5 13.7 13.75C13.45 14 13.146 14.125 12.788 14.125C12.4293 14.125 12.125 14 11.875 13.75L7.1 8.95Z" fill="#535AF1"/>
</svg>
