<svg width="22" height="21" viewBox="0 0 22 21" fill="none" xmlns="http://www.w3.org/2000/svg">
<path d="M5.4 13.05H16.2C16.4833 13.05 16.721 12.954 16.913 12.762C17.1043 12.5707 17.2 12.3333 17.2 12.05C17.2 11.7667 17.1043 11.529 16.913 11.337C16.721 11.1457 16.4833 11.05 16.2 11.05H5.4C5.11667 11.05 4.87933 11.1457 4.688 11.337C4.496 11.529 4.4 11.7667 4.4 12.05C4.4 12.3333 4.496 12.5707 4.688 12.762C4.87933 12.954 5.11667 13.05 5.4 13.05ZM5.4 9.7H16.2C16.4833 9.7 16.721 9.604 16.913 9.412C17.1043 9.22067 17.2 8.98333 17.2 8.7C17.2 8.41667 17.1043 8.179 16.913 7.987C16.721 7.79567 16.4833 7.7 16.2 7.7H5.4C5.11667 7.7 4.87933 7.79567 4.688 7.987C4.496 8.179 4.4 8.41667 4.4 8.7C4.4 8.98333 4.496 9.22067 4.688 9.412C4.87933 9.604 5.11667 9.7 5.4 9.7ZM5.4 6.35H16.2C16.4833 6.35 16.721 6.25433 16.913 6.063C17.1043 5.871 17.2 5.63333 17.2 5.35C17.2 5.06667 17.1043 4.829 16.913 4.637C16.721 4.44567 16.4833 4.35 16.2 4.35H5.4C5.11667 4.35 4.87933 4.44567 4.688 4.637C4.496 4.829 4.4 5.06667 4.4 5.35C4.4 5.63333 4.496 5.871 4.688 6.063C4.87933 6.25433 5.11667 6.35 5.4 6.35ZM19.375 19.925L16.95 17.5H2.65C1.91667 17.5 1.29167 17.2417 0.775 16.725C0.258333 16.2083 0 15.5833 0 14.85V2.65C0 1.91667 0.258333 1.29167 0.775 0.775C1.29167 0.258333 1.91667 0 2.65 0H18.95C19.6833 0 20.3083 0.258333 20.825 0.775C21.3417 1.29167 21.6 1.91667 21.6 2.65V19C21.6 19.5833 21.3333 19.9873 20.8 20.212C20.2667 20.4373 19.7917 20.3417 19.375 19.925ZM2.65 2.65V14.85H18.05L18.95 15.75V2.65H2.65Z" fill="#535AF1"/>
</svg>
