<svg width="21" height="21" viewBox="0 0 21 21" fill="none" xmlns="http://www.w3.org/2000/svg">
<path d="M2.65 17.675H4.5L13 9.175L11.15 7.325L2.65 15.825V17.675ZM18.175 7.725L12.575 2.125L13.925 0.775C14.4417 0.258333 15.071 0 15.813 0C16.5543 0 17.1833 0.258333 17.7 0.775L19.55 2.65C20.0667 3.16667 20.325 3.78333 20.325 4.5C20.325 5.21667 20.0667 5.83333 19.55 6.35L18.175 7.725ZM1.3 20.325C0.933333 20.325 0.625 20.2 0.375 19.95C0.125 19.7 0 19.3917 0 19.025V15.25C0 15.0667 0.029 14.9 0.087 14.75C0.145667 14.6 0.241667 14.4583 0.375 14.325L11.15 3.55L16.75 9.15L6 19.95C5.86667 20.0833 5.725 20.179 5.575 20.237C5.425 20.2957 5.25833 20.325 5.075 20.325H1.3Z" fill="#535AF1"/>
</svg>
