<svg width="28" height="28" viewBox="0 0 28 28" fill="none" xmlns="http://www.w3.org/2000/svg">
<path d="M24.1719 26.7969L16.2604 18.8854C15.5313 19.4444 14.6383 19.8878 13.5815 20.2154C12.5237 20.544 11.4479 20.7083 10.3542 20.7083C7.46181 20.7083 5.01326 19.706 3.00854 17.7013C1.00285 15.6956 0 13.2465 0 10.3542C0 7.46181 1.00285 5.01278 3.00854 3.00708C5.01326 1.00236 7.46181 0 10.3542 0C13.2465 0 15.6956 1.00236 17.7013 3.00708C19.706 5.01278 20.7083 7.46181 20.7083 10.3542C20.7083 11.4479 20.5567 12.4931 20.2533 13.4896C19.949 14.4861 19.5052 15.3733 18.9219 16.151L26.9062 24.1354C27.2708 24.5 27.4531 24.9375 27.4531 25.4479C27.4531 25.9583 27.2587 26.408 26.8698 26.7969C26.5052 27.1615 26.0556 27.3438 25.5208 27.3438C24.9861 27.3438 24.5365 27.1615 24.1719 26.7969ZM10.3542 16.8438C12.1771 16.8438 13.7147 16.2176 14.9669 14.9654C16.2181 13.7142 16.8438 12.1771 16.8438 10.3542C16.8438 8.53125 16.2181 6.99368 14.9669 5.74146C13.7147 4.49021 12.1771 3.86458 10.3542 3.86458C8.53125 3.86458 6.99417 4.49021 5.74292 5.74146C4.49069 6.99368 3.86458 8.53125 3.86458 10.3542C3.86458 12.1771 4.49069 13.7142 5.74292 14.9654C6.99417 16.2176 8.53125 16.8438 10.3542 16.8438Z" fill="#686868"/>
</svg>
