<svg width="37" height="32" viewBox="0 0 37 32" fill="none" xmlns="http://www.w3.org/2000/svg">
<path d="M2.91667 31.1086C2.22222 31.3864 1.5625 31.3253 0.9375 30.9253C0.3125 30.5267 0 29.9454 0 29.1815V21.4211C0 20.935 0.138889 20.501 0.416667 20.119C0.694444 19.7371 1.07639 19.494 1.5625 19.3899L16.6667 15.6399L1.5625 11.8899C1.07639 11.7857 0.694444 11.5426 0.416667 11.1607C0.138889 10.7788 0 10.3447 0 9.85862V2.0982C0 1.33431 0.3125 0.752366 0.9375 0.352366C1.5625 -0.0462449 2.22222 -0.106662 2.91667 0.171115L35 13.7128C35.868 14.0947 36.3021 14.7371 36.3021 15.6399C36.3021 16.5426 35.868 17.185 35 17.5669L2.91667 31.1086Z" fill="white"/>
</svg>
