<svg width="17" height="17" viewBox="0 0 17 17" fill="none" xmlns="http://www.w3.org/2000/svg">
<path d="M7.125 15.7634L0.375 9.01335C0.241667 8.88002 0.146 8.73402 0.0880001 8.57535C0.0293334 8.41735 0 8.25502 0 8.08835C0 7.92168 0.0293334 7.75902 0.0880001 7.60035C0.146 7.44235 0.241667 7.29668 0.375 7.16335L7.15 0.388349C7.41667 0.121683 7.72933 -0.00765049 8.088 0.000349515C8.446 0.00901618 8.75833 0.146683 9.025 0.413349C9.29167 0.680016 9.425 0.996683 9.425 1.36335C9.425 1.73002 9.29167 2.04668 9.025 2.31335L4.575 6.76335H15.375C15.7417 6.76335 16.0543 6.89235 16.313 7.15035C16.571 7.40902 16.7 7.72168 16.7 8.08835C16.7 8.45502 16.571 8.76735 16.313 9.02535C16.0543 9.28402 15.7417 9.41335 15.375 9.41335H4.575L9.05 13.8884C9.31667 14.155 9.44567 14.4677 9.437 14.8264C9.429 15.1844 9.29167 15.4967 9.025 15.7634C8.75833 16.03 8.44167 16.1633 8.075 16.1633C7.70833 16.1633 7.39167 16.03 7.125 15.7634Z" fill="#535AF1"/>
</svg>
