<svg width="22" height="23" viewBox="0 0 22 23" fill="none" xmlns="http://www.w3.org/2000/svg">
<path d="M15.4062 16.5938C15.1771 16.3229 15.0625 16.0154 15.0625 15.6712C15.0625 15.3279 15.1771 15.0417 15.4062 14.8125L17.7188 12.5H8.75C8.39583 12.5 8.09917 12.38 7.86 12.14C7.62 11.9008 7.5 11.6042 7.5 11.25C7.5 10.8958 7.62 10.5987 7.86 10.3587C8.09917 10.1196 8.39583 10 8.75 10H17.7188L15.4062 7.6875C15.1562 7.4375 15.0312 7.14083 15.0312 6.7975C15.0312 6.45333 15.1562 6.15625 15.4062 5.90625C15.6354 5.65625 15.9221 5.53125 16.2663 5.53125C16.6096 5.53125 16.8958 5.64583 17.125 5.875L21.625 10.375C21.75 10.5 21.8388 10.6354 21.8913 10.7812C21.9429 10.9271 21.9688 11.0833 21.9688 11.25C21.9688 11.4167 21.9429 11.5729 21.8913 11.7188C21.8388 11.8646 21.75 12 21.625 12.125L17.125 16.625C16.8542 16.8958 16.5575 17.0154 16.235 16.9837C15.9117 16.9529 15.6354 16.8229 15.4062 16.5938ZM2.5 22.5C1.8125 22.5 1.22375 22.2554 0.73375 21.7663C0.244583 21.2763 0 20.6875 0 20V2.5C0 1.8125 0.244583 1.22375 0.73375 0.73375C1.22375 0.244583 1.8125 0 2.5 0H10C10.3542 0 10.6513 0.119583 10.8913 0.35875C11.1304 0.59875 11.25 0.895833 11.25 1.25C11.25 1.60417 11.1304 1.90083 10.8913 2.14C10.6513 2.38 10.3542 2.5 10 2.5H2.5V20H10C10.3542 20 10.6513 20.12 10.8913 20.36C11.1304 20.5992 11.25 20.8958 11.25 21.25C11.25 21.6042 11.1304 21.9008 10.8913 22.14C10.6513 22.38 10.3542 22.5 10 22.5H2.5Z" fill="black"/>
</svg>
