<svg width="22" height="22" viewBox="0 0 22 22" fill="none" xmlns="http://www.w3.org/2000/svg">
<path d="M14.5 10C15 10 15.4167 9.83333 15.75 9.5C16.0833 9.16667 16.25 8.75 16.25 8.25C16.25 7.75 16.0833 7.33333 15.75 7C15.4167 6.66667 15 6.5 14.5 6.5C14 6.5 13.5833 6.66667 13.25 7C12.9167 7.33333 12.75 7.75 12.75 8.25C12.75 8.75 12.9167 9.16667 13.25 9.5C13.5833 9.83333 14 10 14.5 10ZM7.1 10C7.6 10 8.01667 9.83333 8.35 9.5C8.68333 9.16667 8.85 8.75 8.85 8.25C8.85 7.75 8.68333 7.33333 8.35 7C8.01667 6.66667 7.6 6.5 7.1 6.5C6.6 6.5 6.18333 6.66667 5.85 7C5.51667 7.33333 5.35 7.75 5.35 8.25C5.35 8.75 5.51667 9.16667 5.85 9.5C6.18333 9.83333 6.6 10 7.1 10ZM10.8 16.8C11.9 16.8 12.871 16.554 13.713 16.062C14.5543 15.5707 15.2 14.9833 15.65 14.3C15.8833 13.9333 15.9043 13.6 15.713 13.3C15.521 13 15.2583 12.85 14.925 12.85C14.675 12.85 14.4793 12.9 14.338 13C14.196 13.1 14.0583 13.2333 13.925 13.4C13.5583 13.85 13.1083 14.2127 12.575 14.488C12.0417 14.7627 11.45 14.9 10.8 14.9C10.15 14.9 9.55833 14.7627 9.025 14.488C8.49167 14.2127 8.04167 13.85 7.675 13.4C7.54167 13.2333 7.40433 13.1 7.263 13C7.121 12.9 6.925 12.85 6.675 12.85C6.325 12.85 6.06267 13.0123 5.888 13.337C5.71267 13.6623 5.75833 14.025 6.025 14.425C6.44167 15.0417 7.06667 15.5917 7.9 16.075C8.73333 16.5583 9.7 16.8 10.8 16.8ZM10.8 21.6C9.3 21.6 7.89567 21.3167 6.587 20.75C5.279 20.1833 4.13767 19.4127 3.163 18.438C2.18767 17.4627 1.41667 16.3207 0.85 15.012C0.283333 13.704 0 12.3 0 10.8C0 9.3 0.283333 7.89167 0.85 6.575C1.41667 5.25833 2.18767 4.11267 3.163 3.138C4.13767 2.16267 5.279 1.39567 6.587 0.837C7.89567 0.279 9.3 0 10.8 0C12.3 0 13.7083 0.279 15.025 0.837C16.3417 1.39567 17.4877 2.16267 18.463 3.138C19.4377 4.11267 20.204 5.25833 20.762 6.575C21.3207 7.89167 21.6 9.3 21.6 10.8C21.6 12.3 21.3207 13.704 20.762 15.012C20.204 16.3207 19.4377 17.4627 18.463 18.438C17.4877 19.4127 16.3417 20.1833 15.025 20.75C13.7083 21.3167 12.3 21.6 10.8 21.6ZM10.8 18.95C13.0667 18.95 14.9917 18.1583 16.575 16.575C18.1583 14.9917 18.95 13.0667 18.95 10.8C18.95 8.53333 18.1583 6.60833 16.575 5.025C14.9917 3.44167 13.0667 2.65 10.8 2.65C8.53333 2.65 6.60833 3.44167 5.025 5.025C3.44167 6.60833 2.65 8.53333 2.65 10.8C2.65 13.0667 3.44167 14.9917 5.025 16.575C6.60833 18.1583 8.53333 18.95 10.8 18.95Z" fill="#535AF1"/>
</svg>
