<svg width="17" height="16" viewBox="0 0 17 16" fill="none" xmlns="http://www.w3.org/2000/svg">
<path d="M3.48676 16C3.1701 16 2.91176 15.875 2.71176 15.625C2.51176 15.375 2.45343 15.1 2.53676 14.8L3.23676 12H1.01176C0.678432 12 0.411765 11.871 0.211765 11.613C0.0117647 11.3543 -0.0465686 11.0667 0.0367647 10.75C0.0867647 10.5167 0.203432 10.3333 0.386765 10.2C0.570098 10.0667 0.778432 10 1.01176 10H3.73676L4.73676 6H2.01176C1.67843 6 1.41176 5.871 1.21176 5.613C1.01176 5.35433 0.953432 5.06667 1.03676 4.75C1.08676 4.51667 1.20343 4.33333 1.38676 4.2C1.5701 4.06667 1.77843 4 2.01176 4H5.23676L6.06176 0.725C6.11176 0.508333 6.2201 0.333333 6.38676 0.2C6.55343 0.0666665 6.75343 0 6.98676 0C7.30343 0 7.56176 0.125 7.76176 0.375C7.96176 0.625 8.0201 0.9 7.93676 1.2L7.23676 4H11.2368L12.0618 0.725C12.1118 0.508333 12.2201 0.333333 12.3868 0.2C12.5534 0.0666665 12.7534 0 12.9868 0C13.3034 0 13.5618 0.125 13.7618 0.375C13.9618 0.625 14.0201 0.9 13.9368 1.2L13.2368 4H15.4618C15.7951 4 16.0618 4.129 16.2618 4.387C16.4618 4.64567 16.5201 4.93333 16.4368 5.25C16.3868 5.48333 16.2701 5.66667 16.0868 5.8C15.9034 5.93333 15.6951 6 15.4618 6H12.7368L11.7368 10H14.4618C14.7951 10 15.0618 10.129 15.2618 10.387C15.4618 10.6457 15.5201 10.9333 15.4368 11.25C15.3868 11.4833 15.2701 11.6667 15.0868 11.8C14.9034 11.9333 14.6951 12 14.4618 12H11.2368L10.4118 15.275C10.3618 15.4917 10.2534 15.6667 10.0868 15.8C9.9201 15.9333 9.7201 16 9.48676 16C9.1701 16 8.91177 15.875 8.71177 15.625C8.51177 15.375 8.45343 15.1 8.53677 14.8L9.23676 12H5.23676L4.41177 15.275C4.36176 15.4917 4.25343 15.6667 4.08676 15.8C3.9201 15.9333 3.7201 16 3.48676 16ZM5.73676 10H9.73676L10.7368 6H6.73676L5.73676 10Z" fill="black"/>
</svg>
