<svg width="24" height="19" viewBox="0 0 24 19" fill="none" xmlns="http://www.w3.org/2000/svg">
<path d="M18.975 11.6C18.6083 11.6 18.296 11.4707 18.038 11.212C17.7793 10.954 17.65 10.6417 17.65 10.275V8.55H15.925C15.5583 8.55 15.2457 8.42067 14.987 8.162C14.729 7.904 14.6 7.59167 14.6 7.225C14.6 6.85833 14.729 6.54567 14.987 6.287C15.2457 6.029 15.5583 5.9 15.925 5.9H17.65V4.175C17.65 3.80833 17.7793 3.49567 18.038 3.237C18.296 2.979 18.6083 2.85 18.975 2.85C19.3417 2.85 19.6543 2.979 19.913 3.237C20.171 3.49567 20.3 3.80833 20.3 4.175V5.9H22.025C22.3917 5.9 22.7043 6.029 22.963 6.287C23.221 6.54567 23.35 6.85833 23.35 7.225C23.35 7.59167 23.221 7.904 22.963 8.162C22.7043 8.42067 22.3917 8.55 22.025 8.55H20.3V10.275C20.3 10.6417 20.171 10.954 19.913 11.212C19.6543 11.4707 19.3417 11.6 18.975 11.6ZM8.75 9.1C7.48333 9.1 6.40833 8.65833 5.525 7.775C4.64167 6.89167 4.2 5.81667 4.2 4.55C4.2 3.28333 4.64167 2.20833 5.525 1.325C6.40833 0.441667 7.48333 0 8.75 0C10.0167 0 11.0917 0.441667 11.975 1.325C12.8583 2.20833 13.3 3.28333 13.3 4.55C13.3 5.81667 12.8583 6.89167 11.975 7.775C11.0917 8.65833 10.0167 9.1 8.75 9.1ZM1.3 18.925C0.933333 18.925 0.625 18.8 0.375 18.55C0.125 18.3 0 17.9917 0 17.625V15.35C0 14.6667 0.162333 14.05 0.487 13.5C0.812333 12.95 1.25 12.5333 1.8 12.25C2.9 11.6833 4.03333 11.2583 5.2 10.975C6.36667 10.6917 7.55 10.55 8.75 10.55C9.95 10.55 11.1333 10.6917 12.3 10.975C13.4667 11.2583 14.6 11.6833 15.7 12.25C16.25 12.5333 16.6873 12.95 17.012 13.5C17.3373 14.05 17.5 14.6667 17.5 15.35V17.625C17.5 17.9917 17.375 18.3 17.125 18.55C16.875 18.8 16.5667 18.925 16.2 18.925H1.3ZM2.65 16.275H14.85V15.35C14.85 15.1667 14.821 15.0167 14.763 14.9C14.7043 14.7833 14.625 14.7 14.525 14.65C13.6083 14.2 12.6543 13.846 11.663 13.588C10.671 13.3293 9.7 13.2 8.75 13.2C7.8 13.2 6.829 13.3293 5.837 13.588C4.84567 13.846 3.89167 14.2 2.975 14.65C2.875 14.7 2.79567 14.7833 2.737 14.9C2.679 15.0167 2.65 15.1667 2.65 15.35V16.275ZM8.75 6.45C9.28333 6.45 9.73333 6.26667 10.1 5.9C10.4667 5.53333 10.65 5.08333 10.65 4.55C10.65 4.01667 10.4667 3.56667 10.1 3.2C9.73333 2.83333 9.28333 2.65 8.75 2.65C8.21667 2.65 7.76667 2.83333 7.4 3.2C7.03333 3.56667 6.85 4.01667 6.85 4.55C6.85 5.08333 7.03333 5.53333 7.4 5.9C7.76667 6.26667 8.21667 6.45 8.75 6.45Z" fill="#535AF1"/>
</svg>
