<svg width="15" height="10" viewBox="0 0 15 10" fill="none" xmlns="http://www.w3.org/2000/svg">
<path d="M7.42297 9.125C7.21463 9.125 7.0113 9.08333 6.81297 9C6.61547 8.91667 6.43338 8.79167 6.26672 8.625L0.454216 2.8125C0.141716 2.5 -0.00953489 2.10917 0.000465115 1.64C0.0112984 1.17167 0.172965 0.78125 0.485465 0.46875C0.797965 0.15625 1.1888 0 1.65797 0C2.1263 0 2.51672 0.15625 2.82922 0.46875L7.42297 5.09375L12.048 0.46875C12.3605 0.15625 12.7509 0 13.2192 0C13.6884 0 14.0792 0.15625 14.3917 0.46875C14.7042 0.78125 14.8605 1.17167 14.8605 1.64C14.8605 2.10917 14.7042 2.5 14.3917 2.8125L8.57922 8.625C8.41255 8.79167 8.23046 8.91667 8.03296 9C7.83463 9.08333 7.6313 9.125 7.42297 9.125Z" fill="#444DF2"/>
</svg>
