<svg width="23" height="23" viewBox="0 0 23 23" fill="none" xmlns="http://www.w3.org/2000/svg">
<path d="M10.8 22.125C9.3 22.125 7.89567 21.8417 6.587 21.275C5.279 20.7083 4.13767 19.9377 3.163 18.963C2.18767 17.9877 1.41667 16.8457 0.85 15.537C0.283333 14.229 0 12.825 0 11.325C0 9.825 0.283333 8.41667 0.85 7.1C1.41667 5.78333 2.18767 4.63767 3.163 3.663C4.13767 2.68767 5.279 1.92067 6.587 1.362C7.89567 0.804 9.3 0.525 10.8 0.525C11.5667 0.525 12.3127 0.6 13.038 0.75C13.7627 0.9 14.45 1.11667 15.1 1.4C14.9167 1.68333 14.7667 1.98333 14.65 2.3C14.5333 2.61667 14.475 2.95833 14.475 3.325C14.475 3.45833 14.4833 3.58733 14.5 3.712C14.5167 3.83733 14.5417 3.96667 14.575 4.1C14.0083 3.8 13.4083 3.57067 12.775 3.412C12.1417 3.254 11.4833 3.175 10.8 3.175C8.53333 3.175 6.60833 3.96667 5.025 5.55C3.44167 7.13333 2.65 9.05833 2.65 11.325C2.65 13.5917 3.44167 15.5167 5.025 17.1C6.60833 18.6833 8.53333 19.475 10.8 19.475C13.0667 19.475 14.9917 18.6833 16.575 17.1C18.1583 15.5167 18.95 13.5917 18.95 11.325C18.95 10.7917 18.9 10.275 18.8 9.775C18.7 9.275 18.5583 8.79167 18.375 8.325C18.5917 8.425 18.821 8.504 19.063 8.562C19.3043 8.62067 19.55 8.65 19.8 8.65C20.05 8.65 20.2917 8.625 20.525 8.575C20.7583 8.525 20.9833 8.45 21.2 8.35C21.3333 8.83333 21.4333 9.321 21.5 9.813C21.5667 10.3043 21.6 10.8083 21.6 11.325C21.6 12.825 21.3207 14.229 20.762 15.537C20.204 16.8457 19.4377 17.9877 18.463 18.963C17.4877 19.9377 16.3417 20.7083 15.025 21.275C13.7083 21.8417 12.3 22.125 10.8 22.125ZM14.5 10.525C15 10.525 15.4167 10.3583 15.75 10.025C16.0833 9.69167 16.25 9.275 16.25 8.775C16.25 8.275 16.0833 7.85833 15.75 7.525C15.4167 7.19167 15 7.025 14.5 7.025C14 7.025 13.5833 7.19167 13.25 7.525C12.9167 7.85833 12.75 8.275 12.75 8.775C12.75 9.275 12.9167 9.69167 13.25 10.025C13.5833 10.3583 14 10.525 14.5 10.525ZM7.1 10.525C7.6 10.525 8.01667 10.3583 8.35 10.025C8.68333 9.69167 8.85 9.275 8.85 8.775C8.85 8.275 8.68333 7.85833 8.35 7.525C8.01667 7.19167 7.6 7.025 7.1 7.025C6.6 7.025 6.18333 7.19167 5.85 7.525C5.51667 7.85833 5.35 8.275 5.35 8.775C5.35 9.275 5.51667 9.69167 5.85 10.025C6.18333 10.3583 6.6 10.525 7.1 10.525ZM10.8 17.325C12.1833 17.325 13.3667 16.9373 14.35 16.162C15.3333 15.3873 16.0167 14.4583 16.4 13.375H5.2C5.58333 14.4583 6.26667 15.3873 7.25 16.162C8.23333 16.9373 9.41667 17.325 10.8 17.325ZM18.475 4.65H17.8C17.4333 4.65 17.1207 4.52067 16.862 4.262C16.604 4.004 16.475 3.69167 16.475 3.325C16.475 2.95833 16.604 2.64567 16.862 2.387C17.1207 2.129 17.4333 2 17.8 2H18.475V1.325C18.475 0.958333 18.604 0.645667 18.862 0.387C19.1207 0.129 19.4333 0 19.8 0C20.1667 0 20.4793 0.129 20.738 0.387C20.996 0.645667 21.125 0.958333 21.125 1.325V2H21.8C22.1667 2 22.4793 2.129 22.738 2.387C22.996 2.64567 23.125 2.95833 23.125 3.325C23.125 3.69167 22.996 4.004 22.738 4.262C22.4793 4.52067 22.1667 4.65 21.8 4.65H21.125V5.325C21.125 5.69167 20.996 6.00433 20.738 6.263C20.4793 6.521 20.1667 6.65 19.8 6.65C19.4333 6.65 19.1207 6.521 18.862 6.263C18.604 6.00433 18.475 5.69167 18.475 5.325V4.65Z" fill="#535AF1"/>
</svg>
