<svg width="8" height="13" viewBox="0 0 8 13" fill="none" xmlns="http://www.w3.org/2000/svg">
<path d="M-0.000162395 6.1858C-0.000162387 6.01219 0.0345599 5.84275 0.104005 5.67747C0.173449 5.51289 0.277615 5.36115 0.416504 5.22226L5.26025 0.378513C5.52067 0.118096 5.84636 -0.00794581 6.23734 0.000387536C6.62761 0.00941533 6.95296 0.144138 7.21338 0.404554C7.4738 0.664971 7.604 0.990665 7.604 1.38164C7.604 1.77192 7.4738 2.09726 7.21338 2.35768L3.35921 6.1858L7.21338 10.04C7.4738 10.3004 7.604 10.6257 7.604 11.016C7.604 11.407 7.4738 11.7327 7.21338 11.9931C6.95296 12.2535 6.62761 12.3837 6.23734 12.3837C5.84636 12.3837 5.52067 12.2535 5.26025 11.9931L0.416504 7.14935C0.277615 7.01046 0.173449 6.85872 0.104005 6.69414C0.0345599 6.52886 -0.000162403 6.35941 -0.000162395 6.1858Z" fill="#535AF1"/>
</svg>
