<svg width="22" height="22" viewBox="0 0 22 22" fill="none" xmlns="http://www.w3.org/2000/svg">
<path d="M10.8 21.6C9.33333 21.6 7.94167 21.3127 6.625 20.738C5.30833 20.1627 4.16267 19.3873 3.188 18.412C2.21267 17.4373 1.43733 16.2917 0.862 14.975C0.287333 13.6583 0 12.2667 0 10.8C0 9.31667 0.287333 7.92067 0.862 6.612C1.43733 5.304 2.21267 4.16233 3.188 3.187C4.16267 2.21233 5.30833 1.43733 6.625 0.862C7.94167 0.287333 9.33333 0 10.8 0C12.2833 0 13.6793 0.287333 14.988 0.862C16.296 1.43733 17.4377 2.21233 18.413 3.187C19.3877 4.16233 20.1627 5.304 20.738 6.612C21.3127 7.92067 21.6 9.31667 21.6 10.8V12.625C21.6 13.8083 21.2127 14.75 20.438 15.45C19.6627 16.15 18.7583 16.5 17.725 16.5C17.1417 16.5 16.575 16.3873 16.025 16.162C15.475 15.9373 15 15.6333 14.6 15.25C14.1 15.65 13.5043 15.9583 12.813 16.175C12.121 16.3917 11.45 16.5 10.8 16.5C9.21667 16.5 7.871 15.946 6.763 14.838C5.65433 13.7293 5.1 12.3833 5.1 10.8C5.1 9.21667 5.65433 7.871 6.763 6.763C7.871 5.65433 9.21667 5.1 10.8 5.1C12.3833 5.1 13.7293 5.65433 14.838 6.763C15.946 7.871 16.5 9.21667 16.5 10.8V12.625C16.5 12.9583 16.6207 13.246 16.862 13.488C17.104 13.7293 17.3917 13.85 17.725 13.85C18.0583 13.85 18.346 13.7293 18.588 13.488C18.8293 13.246 18.95 12.9583 18.95 12.625V10.8C18.95 8.56667 18.15 6.65 16.55 5.05C14.95 3.45 13.0333 2.65 10.8 2.65C8.56667 2.65 6.65 3.45 5.05 5.05C3.45 6.65 2.65 8.56667 2.65 10.8C2.65 13.0333 3.45 14.95 5.05 16.55C6.65 18.15 8.56667 18.95 10.8 18.95H14.575C14.9417 18.95 15.254 19.0793 15.512 19.338C15.7707 19.596 15.9 19.9083 15.9 20.275C15.9 20.6417 15.7707 20.9543 15.512 21.213C15.254 21.471 14.9417 21.6 14.575 21.6H10.8ZM10.8 13.85C11.65 13.85 12.371 13.554 12.963 12.962C13.5543 12.3707 13.85 11.65 13.85 10.8C13.85 9.95 13.5543 9.229 12.963 8.637C12.371 8.04567 11.65 7.75 10.8 7.75C9.95 7.75 9.22933 8.04567 8.638 8.637C8.046 9.229 7.75 9.95 7.75 10.8C7.75 11.65 8.046 12.3707 8.638 12.962C9.22933 13.554 9.95 13.85 10.8 13.85Z" fill="#535AF1"/>
</svg>
