<svg width="16" height="16" viewBox="0 0 16 16" fill="none" xmlns="http://www.w3.org/2000/svg">
<path d="M6.875 14.8885L0.275 8.28846C0.175 8.18846 0.104 8.08013 0.0619998 7.96346C0.0206665 7.84679 0 7.72179 0 7.58846C0 7.45513 0.0206665 7.33013 0.0619998 7.21346C0.104 7.09679 0.175 6.98846 0.275 6.88846L6.875 0.288461C7.05833 0.105128 7.28733 0.00912821 7.562 0.00046154C7.83733 -0.00753846 8.075 0.0884612 8.275 0.288461C8.475 0.471795 8.57933 0.700795 8.588 0.975461C8.596 1.25079 8.5 1.48846 8.3 1.68846L3.4 6.58846H14.575C14.8583 6.58846 15.096 6.68413 15.288 6.87546C15.4793 7.06746 15.575 7.30513 15.575 7.58846C15.575 7.87179 15.4793 8.10913 15.288 8.30046C15.096 8.49246 14.8583 8.58846 14.575 8.58846H3.4L8.3 13.4885C8.48333 13.6718 8.57933 13.9051 8.588 14.1885C8.596 14.4718 8.5 14.7051 8.3 14.8885C8.11667 15.0885 7.88333 15.1885 7.6 15.1885C7.31667 15.1885 7.075 15.0885 6.875 14.8885Z" fill="black"/>
</svg>
