<svg width="22" height="22" viewBox="0 0 22 22" fill="none" xmlns="http://www.w3.org/2000/svg">
<path d="M9.4 12.2L7.425 10.225C7.175 9.975 6.86667 9.85 6.5 9.85C6.13333 9.85 5.825 9.975 5.575 10.225C5.325 10.475 5.2 10.7833 5.2 11.15C5.2 11.5167 5.325 11.825 5.575 12.075L8.475 14.975C8.73863 15.2417 9.04621 15.375 9.39773 15.375C9.74924 15.375 10.0583 15.2417 10.325 14.975L16.075 9.225C16.325 8.975 16.45 8.66667 16.45 8.3C16.45 7.93333 16.325 7.625 16.075 7.375C15.825 7.125 15.5167 7 15.15 7C14.7833 7 14.475 7.125 14.225 7.375L9.4 12.2ZM10.8 21.6C9.306 21.6 7.902 21.3165 6.588 20.7495C5.274 20.1825 4.131 19.413 3.159 18.441C2.187 17.469 1.4175 16.326 0.8505 15.012C0.2835 13.698 0 12.294 0 10.8C0 9.30173 0.283992 7.89372 0.851975 6.57597C1.41996 5.25821 2.19079 4.11194 3.16447 3.13718C4.13816 2.16239 5.28115 1.39583 6.59345 0.8375C7.90575 0.279167 9.30793 0 10.8 0C12.2981 0 13.706 0.279167 15.0236 0.8375C16.3412 1.39583 17.4875 2.1625 18.4625 3.1375C19.4375 4.1125 20.2042 5.25903 20.7625 6.57708C21.3208 7.89514 21.6 9.30348 21.6 10.8021C21.6 12.3007 21.3208 13.7042 20.7625 15.0125C20.2042 16.3208 19.4376 17.4618 18.4628 18.4355C17.4881 19.4092 16.3418 20.18 15.024 20.748C13.7063 21.316 12.2983 21.6 10.8 21.6ZM10.8 18.95C13.0752 18.95 15.0023 18.1605 16.5814 16.5814C18.1605 15.0023 18.95 13.0752 18.95 10.8C18.95 8.52478 18.1605 6.59765 16.5814 5.0186C15.0023 3.43953 13.0752 2.65 10.8 2.65C8.52478 2.65 6.59765 3.43953 5.0186 5.0186C3.43953 6.59765 2.65 8.52478 2.65 10.8C2.65 13.0752 3.43953 15.0023 5.0186 16.5814C6.59765 18.1605 8.52478 18.95 10.8 18.95Z" fill="#535AF1"/>
</svg>
