<svg width="22" height="22" viewBox="0 0 22 22" fill="none" xmlns="http://www.w3.org/2000/svg">
<path d="M2.65 21.55C1.91667 21.55 1.29167 21.2917 0.775 20.775C0.258333 20.2583 0 19.6333 0 18.9V4.6C0 3.86667 0.258333 3.24167 0.775 2.725C1.29167 2.20833 1.91667 1.95 2.65 1.95H12.075L9.425 4.6H2.65V18.9H16.95V12.125L19.6 9.475V18.9C19.6 19.6333 19.3417 20.2583 18.825 20.775C18.3083 21.2917 17.6833 21.55 16.95 21.55H2.65ZM13.55 3.275L15.45 5.175L9.125 11.45V12.425H10.075L16.4 6.125L18.25 8L11.975 14.3C11.725 14.55 11.4373 14.7417 11.112 14.875C10.7873 15.0083 10.45 15.075 10.1 15.075H7.8C7.43333 15.075 7.12067 14.9457 6.862 14.687C6.604 14.429 6.475 14.1167 6.475 13.75V11.45C6.475 11.1 6.54167 10.7623 6.675 10.437C6.80833 10.1123 7 9.825 7.25 9.575L13.55 3.275ZM18.25 8L13.55 3.275L16.025 0.8C16.5583 0.266667 17.1917 0 17.925 0C18.6583 0 19.2833 0.266667 19.8 0.8L20.75 1.775C21.2667 2.30833 21.525 2.93333 21.525 3.65C21.525 4.36667 21.2667 4.98333 20.75 5.5L18.25 8Z" fill="#535AF1"/>
</svg>
