<svg width="30" height="30" viewBox="0 0 30 30" fill="none" xmlns="http://www.w3.org/2000/svg">
<path d="M4.44267 23.3111C6.43934 21.3144 6.63901 20.8152 7.88693 22.0632C9.13485 23.3111 8.63568 23.4608 6.63901 25.5074C5.1415 27.0049 3.24466 26.7054 3.24466 26.7054C3.24466 26.7054 2.94516 24.8086 4.44267 23.3111Z" fill="#FF9D27"/>
<path d="M8.23634 25.3577C9.03501 23.2612 9.28459 23.0116 8.1365 22.3627C6.98842 21.7138 6.98842 22.163 6.23967 24.2595C5.64066 25.8069 6.3395 27.2046 6.3395 27.2046C6.3395 27.2046 7.68725 26.955 8.23634 25.3577Z" fill="#FF9D27"/>
<path d="M7.08809 23.411C7.53735 22.2629 7.53735 22.0133 8.13635 22.3627C8.78527 22.7121 8.63552 22.8619 8.18626 24.01C7.88676 24.8585 7.13801 25.0582 7.13801 25.0582C7.13801 25.0582 6.78859 24.3095 7.08809 23.411Z" fill="#FDF516"/>
<path d="M7.53724 21.8137C6.88832 20.6657 6.63874 20.9152 4.54223 21.7139C2.99481 22.3129 2.69531 23.6107 2.69531 23.6107C2.69531 23.6107 4.09298 24.3096 5.6404 23.7106C7.73691 22.9119 8.18616 22.9119 7.53724 21.8137Z" fill="#FF9D27"/>
<path d="M6.4893 22.8618C7.63738 22.4126 7.88697 22.4126 7.53755 21.8136C7.18813 21.1647 7.03838 21.3144 5.89029 21.7637C5.04171 22.0632 4.84204 22.8119 4.84204 22.8119C4.84204 22.8119 5.64071 23.1613 6.4893 22.8618Z" fill="#FDF516"/>
<path d="M5.94013 22.762C7.0383 21.6639 7.13814 21.3644 7.83697 22.0632C8.53581 22.762 8.23631 22.8619 7.13814 23.96C6.28955 24.8086 5.2413 24.6089 5.2413 24.6089C5.2413 24.6089 5.14146 23.6106 5.94013 22.762Z" fill="#FDF516"/>
<path d="M8.23627 17.97C5.14143 12.7787 0 14.9251 0 14.9251C0 14.9251 7.33777 7.58735 12.2795 12.5291L8.23627 17.97Z" fill="#3BAACF"/>
<path d="M10.6323 14.1265L12.2296 12.5291C7.33777 7.58735 0 14.9251 0 14.9251C0 14.9251 6.43927 10.3328 10.6323 14.1265Z" fill="#428BC1"/>
<path d="M11.98 21.7139C17.1713 24.8088 15.0249 29.9502 15.0249 29.9502C15.0249 29.9502 22.3627 22.6124 17.4209 17.6707L11.98 21.7139Z" fill="#3BAACF"/>
<path d="M15.8236 19.3178L17.4209 17.7205C22.3627 22.6622 15.0249 30 15.0249 30C15.0249 30 19.6172 23.5108 15.8236 19.3178Z" fill="#428BC1"/>
<path d="M23.3612 14.426C17.521 20.2163 11.0817 23.3611 8.83544 21.1148C6.58918 18.8686 9.73394 12.4293 15.5243 6.58905C22.313 -0.199632 29.8504 0.0998694 29.8504 0.0998694C29.8504 0.0998694 30.1 7.63731 23.3612 14.426Z" fill="#C5D0D8"/>
<path d="M21.8636 12.7787C16.0732 18.5691 10.2829 22.3627 8.93511 21.015C7.58736 19.6672 11.381 13.8769 17.1714 8.08652C23.9601 1.29784 29.9501 0 29.9501 0C29.9501 0 28.6522 5.99002 21.8636 12.7787Z" fill="#DAE3EA"/>
<path d="M11.1315 22.712C10.8819 22.9616 10.4826 22.9616 10.233 22.712L7.23797 19.717C6.98839 19.4675 6.98839 19.0182 7.23797 18.7686L8.13647 17.8701L12.03 21.7636L11.1315 22.712Z" fill="#C94747"/>
<path d="M10.2828 21.8136C10.0332 22.0632 9.73369 22.163 9.58394 22.0133L7.88677 20.3161C7.73702 20.1663 7.83685 19.8668 8.08643 19.6173L8.98494 18.7188L11.1813 20.9151L10.2828 21.8136Z" fill="#F15744"/>
<path d="M9.43438 23.0615C9.28463 23.2113 8.93522 23.2113 8.78547 23.0615L6.83871 21.1148C6.68896 20.965 6.73888 20.6655 6.88863 20.5157L7.48763 19.9167L10.0334 22.4625L9.43438 23.0615Z" fill="#3E4347"/>
<path d="M9.03489 22.6623C8.88514 22.812 8.58564 22.8619 8.48581 22.7621L7.13805 21.4143C7.03822 21.3145 7.08814 21.0649 7.2878 20.9152L7.8868 20.3162L9.63389 22.0633L9.03489 22.6623Z" fill="#62727A"/>
<path d="M29.8502 0.0997044C29.8502 0.0997044 27.1547 -0.000129111 23.5107 1.39754L28.5523 6.43914C29.95 2.79521 29.8502 0.0997044 29.8502 0.0997044Z" fill="#C94747"/>
<path d="M29.8502 0.0998535C29.8502 0.0998535 27.7038 0.549105 24.4592 2.39603L27.5541 5.49087C29.401 2.24628 29.8502 0.0998535 29.8502 0.0998535Z" fill="#F15744"/>
<path d="M20.7156 11.7304C22.094 11.7304 23.2114 10.613 23.2114 9.23461C23.2114 7.8562 22.094 6.73877 20.7156 6.73877C19.3372 6.73877 18.2197 7.8562 18.2197 9.23461C18.2197 10.613 19.3372 11.7304 20.7156 11.7304Z" fill="#EDF4F9"/>
<path d="M20.7154 10.8819C21.6251 10.8819 22.3626 10.1444 22.3626 9.23466C22.3626 8.3249 21.6251 7.5874 20.7154 7.5874C19.8056 7.5874 19.0681 8.3249 19.0681 9.23466C19.0681 10.1444 19.8056 10.8819 20.7154 10.8819Z" fill="#3BAACF"/>
<path d="M15.7239 16.7221C17.1023 16.7221 18.2197 15.6047 18.2197 14.2263C18.2197 12.8479 17.1023 11.7305 15.7239 11.7305C14.3455 11.7305 13.228 12.8479 13.228 14.2263C13.228 15.6047 14.3455 16.7221 15.7239 16.7221Z" fill="#EDF4F9"/>
<path d="M15.7239 15.8736C16.6337 15.8736 17.3712 15.1361 17.3712 14.2264C17.3712 13.3166 16.6337 12.5791 15.7239 12.5791C14.8142 12.5791 14.0767 13.3166 14.0767 14.2264C14.0767 15.1361 14.8142 15.8736 15.7239 15.8736Z" fill="#3BAACF"/>
<path d="M23.411 2.44593C23.2613 2.59568 22.9618 2.59568 22.812 2.44593C22.6623 2.29618 22.6623 1.99668 22.812 1.84693C22.9618 1.69718 23.2613 1.69718 23.411 1.84693C23.5608 1.99668 23.5608 2.29618 23.411 2.44593Z" fill="white"/>
<path d="M24.2597 3.69393C24.4802 3.69393 24.659 3.51514 24.659 3.2946C24.659 3.07405 24.4802 2.89526 24.2597 2.89526C24.0391 2.89526 23.8604 3.07405 23.8604 3.2946C23.8604 3.51514 24.0391 3.69393 24.2597 3.69393Z" fill="white"/>
<path d="M25.4577 4.89169C25.6782 4.89169 25.857 4.7129 25.857 4.49235C25.857 4.27181 25.6782 4.09302 25.4577 4.09302C25.2371 4.09302 25.0583 4.27181 25.0583 4.49235C25.0583 4.7129 25.2371 4.89169 25.4577 4.89169Z" fill="white"/>
<path d="M26.6059 6.08993C26.8264 6.08993 27.0052 5.91114 27.0052 5.69059C27.0052 5.47005 26.8264 5.29126 26.6059 5.29126C26.3853 5.29126 26.2065 5.47005 26.2065 5.69059C26.2065 5.91114 26.3853 6.08993 26.6059 6.08993Z" fill="white"/>
<path d="M27.8036 7.23788C28.0242 7.23788 28.203 7.05909 28.203 6.83854C28.203 6.618 28.0242 6.43921 27.8036 6.43921C27.5831 6.43921 27.4043 6.618 27.4043 6.83854C27.4043 7.05909 27.5831 7.23788 27.8036 7.23788Z" fill="white"/>
</svg>
