<svg width="22" height="19" viewBox="0 0 22 19" fill="none" xmlns="http://www.w3.org/2000/svg">
<path d="M1.75 18.6652C1.33333 18.8318 0.9375 18.7952 0.5625 18.5552C0.1875 18.316 0 17.9673 0 17.5089V12.8527C0 12.561 0.0833334 12.3006 0.25 12.0714C0.416667 11.8423 0.645833 11.6964 0.9375 11.6339L10 9.38392L0.9375 7.13392C0.645833 7.07142 0.416667 6.92559 0.25 6.69642C0.0833334 6.46725 0 6.20684 0 5.91517V1.25892C0 0.800586 0.1875 0.45142 0.5625 0.21142C0.9375 -0.027747 1.33333 -0.0639974 1.75 0.102669L21 8.22767C21.5208 8.45684 21.7812 8.84225 21.7812 9.38392C21.7812 9.92559 21.5208 10.311 21 10.5402L1.75 18.6652Z" fill="#797EF3"/>
</svg>
