<svg width="18" height="17" viewBox="0 0 18 17" fill="none" xmlns="http://www.w3.org/2000/svg">
<path d="M3.77826 16.65C3.34493 16.65 3.00326 16.4873 2.75326 16.162C2.50326 15.8373 2.42826 15.4667 2.52826 15.05L3.12826 12.65H1.32826C0.894928 12.65 0.544927 12.4833 0.278261 12.15C0.0115941 11.8167 -0.0634058 11.4333 0.0532609 11C0.136594 10.7167 0.294927 10.479 0.528261 10.287C0.761594 10.0957 1.02826 10 1.32826 10H3.80326L4.62826 6.65H2.32826C1.89493 6.65 1.54493 6.48333 1.27826 6.15C1.01159 5.81667 0.936594 5.43333 1.05326 5C1.13659 4.71667 1.29493 4.47933 1.52826 4.288C1.76159 4.096 2.02826 4 2.32826 4H5.30326L6.05326 0.975C6.13659 0.691667 6.29493 0.458333 6.52826 0.275C6.76159 0.0916668 7.02826 0 7.32826 0C7.76159 0 8.10326 0.162334 8.35326 0.487C8.60326 0.812334 8.67826 1.18333 8.57826 1.6L7.97826 4H11.3033L12.0533 0.975C12.1366 0.691667 12.2949 0.458333 12.5283 0.275C12.7616 0.0916668 13.0283 0 13.3283 0C13.7616 0 14.1033 0.162334 14.3533 0.487C14.6033 0.812334 14.6783 1.18333 14.5783 1.6L13.9783 4H15.7783C16.2116 4 16.5616 4.16667 16.8283 4.5C17.0949 4.83333 17.1699 5.21667 17.0533 5.65C16.9699 5.93333 16.8116 6.17067 16.5783 6.362C16.3449 6.554 16.0783 6.65 15.7783 6.65H13.3033L12.4783 10H14.7783C15.2116 10 15.5616 10.1667 15.8283 10.5C16.0949 10.8333 16.1699 11.2167 16.0533 11.65C15.9699 11.9333 15.8116 12.171 15.5783 12.363C15.3449 12.5543 15.0783 12.65 14.7783 12.65H11.8033L11.0533 15.675C10.9699 15.9583 10.8116 16.1917 10.5783 16.375C10.3449 16.5583 10.0783 16.65 9.77826 16.65C9.34493 16.65 9.00326 16.4873 8.75326 16.162C8.50326 15.8373 8.42826 15.4667 8.52826 15.05L9.12826 12.65H5.80326L5.05326 15.675C4.96993 15.9583 4.81159 16.1917 4.57826 16.375C4.34493 16.5583 4.07826 16.65 3.77826 16.65ZM6.47826 10H9.80326L10.6283 6.65H7.30326L6.47826 10Z" fill="#535AF1"/>
</svg>
